# xmcd CD database file
#
# Track frame offsets:
#	150
#	13167
#	26259
#	39615
#	56353
#	68817
#	90503
#	105646
#	121419
#	132246
#	143928
#	157761
#	169523
#	185376
#	198716
#	212240
#	227940
#	239523
#	253173
#	266439
#
# Disc length: 3941 seconds
#
# Revision: 0
# Processed by: cddbd v1.5.2PL0 Copyright (c) Steve Scherf et al.
# Submitted via: CDex 1.51
#
DISCID=180f6314
DTITLE=Ken Colyer - As Good AS It Gets CD1
DYEAR=1900
DGENRE=Jazz
TTITLE0=Dippermouth Blues
TTITLE1=All the Girls go Crazy
TTITLE2=Harlem Rag
TTITLE3=Chimes Blues
TTITLE4=Moose March
TTITLE5=Tiger Rag
TTITLE6=Goin' Home
TTITLE7=Cataract Rag
TTITLE8=Redwing
TTITLE9=Blue Blood Blues
TTITLE10=Salutation Stomp
TTITLE11=Creole Song
TTITLE12=Gentofte Blues
TTITLE13=Crane River Woman
TTITLE14=Hiwartha Rag
TTITLE15=Savoy Blues
TTITLE16=Milenberg Joys
TTITLE17=Heebie Jeebies
TTITLE18=Black Cat on a Fence
TTITLE19=Snag it
EXTD=
EXTT0=
EXTT1=
EXTT2=
EXTT3=
EXTT4=
EXTT5=
EXTT6=
EXTT7=
EXTT8=
EXTT9=
EXTT10=
EXTT11=
EXTT12=
EXTT13=
EXTT14=
EXTT15=
EXTT16=
EXTT17=
EXTT18=
EXTT19=
PLAYORDER=
